# xmcd
#
# Track frame offsets:
# 150
# 16825
# 29372
# 41200
# 58180
# 76982
# 88662
# 108495
# 120650
# 133725
# 152540
# 160777
#
# Disc length: 2316 seconds
#
#
# Revision: 1
# Processed by: cddbd v1.5.1PL2 Copyright (c) Steve Scherf et al.
# Submitted via: FreeRIP 2.945 
#
DISCID=94090a0c
DTITLE=Ralph Stanley - While The Ages Roll On
DYEAR=2000
DGENRE=Gospel
TTITLE0=Dad's Old Rocky Field
TTITLE1=Are You Ready
TTITLE2=Gone Away With A Friend
TTITLE3=Daddy's Wildwood Flower
TTITLE4=While The Ages Roll On
TTITLE5=Old Job
TTITLE6=The Day Is Past And Gone
TTITLE7=Man From Galilee
TTITLE8=One Drop Of Water
TTITLE9=Because He Loved Me
TTITLE10=Waiting For Me
TTITLE11=A Robin Built A Nest On Daddy's Grave
EXTD=Rebel Records
EXTT0=
EXTT1=
EXTT2=
EXTT3=
EXTT4=
EXTT5=
EXTT6=
EXTT7=
EXTT8=
EXTT9=
EXTT10=
EXTT11=
PLAYORDER=
